<svg xmlns="http://www.w3.org/2000/svg" width="444.727" height="110.576" viewBox="0 0 444.727 110.576">
  <g id="Group_5565" data-name="Group 5565" transform="translate(0)">
    <g id="Group_5563" data-name="Group 5563" transform="translate(0 0)">
      <path id="Path_349" data-name="Path 349" d="M181.618,231.4l15.514,27.179A25.251,25.251,0,0,0,219,271.309l4.487.012a25.257,25.257,0,0,0,21.585-38.477h0l-32.961-56.816a27.209,27.209,0,0,0-47.156.151L133.98,230.35" transform="translate(-129.385 -162.473)" fill="#0070c2"/>
      <g id="Group_5562" data-name="Group 5562" transform="translate(0 55.88)">
        <path id="Path_350" data-name="Path 350" d="M155.153,309.6c-14.9,0-27.023-11.786-27.023-26.276a25.721,25.721,0,0,1,3.674-13.237,27.3,27.3,0,0,1,23.349-13.045c14.9,0,27.023,11.786,27.023,26.276s-12.123,26.276-27.023,26.276Z" transform="translate(-127.058 -255.968)" fill="#80ce36"/>
        <path id="Path_351" data-name="Path 351" d="M154.445,257.4c14.309,0,25.951,11.31,25.951,25.2s-11.641,25.2-25.951,25.2-25.951-11.31-25.951-25.2a24.651,24.651,0,0,1,3.517-12.683A26.209,26.209,0,0,1,154.439,257.4m.006-2.144a28.239,28.239,0,0,0-24.27,13.563,26.651,26.651,0,0,0-3.824,13.785c0,15.1,12.575,27.348,28.095,27.348s28.095-12.244,28.095-27.348-12.575-27.348-28.095-27.348Z" transform="translate(-126.35 -255.26)" fill="#fff"/>
      </g>
    </g>
    <g id="Group_5564" data-name="Group 5564" transform="translate(146.062 21.341)">
      <path id="Path_352" data-name="Path 352" d="M389.639,210.749l-13.93,32.762a3.979,3.979,0,0,1-1.385,1.9,3.393,3.393,0,0,1-2.03.675,3.222,3.222,0,0,1-2.578-.97,3.505,3.505,0,0,1-.837-2.385,4.332,4.332,0,0,1,.193-1.223l16.062-38.568a4.235,4.235,0,0,1,1.578-2,3.375,3.375,0,0,1,2.288-.578,3.836,3.836,0,0,1,3.614,2.578l15.863,37.791a4.326,4.326,0,0,1,.325,1.548,3.684,3.684,0,0,1-3.607,3.806,3.366,3.366,0,0,1-2.1-.711,4.618,4.618,0,0,1-1.451-1.933l-13.864-32.31,1.873-.385Zm-11.93,24.9,3.547-7.42h17.411l1.223,7.42H377.709Z" transform="translate(-368.88 -198.878)" fill="#073856"/>
      <path id="Path_353" data-name="Path 353" d="M430.633,208.224a4.005,4.005,0,0,1-2.807-1.03,3.492,3.492,0,0,1-1.126-2.71,3.38,3.38,0,0,1,1.126-2.674,4.067,4.067,0,0,1,2.807-1h28.637a4.006,4.006,0,0,1,2.806,1.03,3.492,3.492,0,0,1,1.126,2.71,3.4,3.4,0,0,1-1.126,2.674,4.067,4.067,0,0,1-2.806,1Zm14.255,37.731a4.086,4.086,0,0,1-2.969-1.126,3.744,3.744,0,0,1-1.162-2.806V204.616h8.383v37.405a3.705,3.705,0,0,1-1.192,2.806,4.278,4.278,0,0,1-3.065,1.126Z" transform="translate(-391.878 -199.064)" fill="#073856"/>
      <path id="Path_354" data-name="Path 354" d="M520.351,238.408a3.927,3.927,0,0,1,2.806,1.066,3.6,3.6,0,0,1,1.126,2.74,3.47,3.47,0,0,1-1.126,2.674,3.927,3.927,0,0,1-2.806,1.066H499.393a3.848,3.848,0,0,1-3.933-3.933V204.743a3.743,3.743,0,0,1,1.162-2.806,4.085,4.085,0,0,1,2.969-1.126,3.9,3.9,0,0,1,2.74,1.126,3.7,3.7,0,0,1,1.193,2.806V239.5l-1.421-1.1h18.248Z" transform="translate(-419.228 -199.064)" fill="#073856"/>
      <path id="Path_355" data-name="Path 355" d="M568.479,210.749l-13.93,32.762a3.979,3.979,0,0,1-1.385,1.9,3.4,3.4,0,0,1-2.03.675,3.222,3.222,0,0,1-2.578-.97,3.505,3.505,0,0,1-.837-2.385,4.335,4.335,0,0,1,.193-1.223l16.062-38.568a4.234,4.234,0,0,1,1.578-2,3.375,3.375,0,0,1,2.288-.578,3.836,3.836,0,0,1,3.614,2.578l15.863,37.791a4.323,4.323,0,0,1,.325,1.548,3.684,3.684,0,0,1-3.608,3.806,3.366,3.366,0,0,1-2.1-.711,4.618,4.618,0,0,1-1.451-1.933l-13.864-32.31,1.873-.385Zm-11.93,24.9,3.547-7.42h17.411l1.223,7.42H556.549Z" transform="translate(-440.014 -198.878)" fill="#073856"/>
      <path id="Path_356" data-name="Path 356" d="M635.156,246.173a27.334,27.334,0,0,1-8.124-1.126,19.387,19.387,0,0,1-6.9-3.969,5.1,5.1,0,0,1-1.289-1.614,4.008,4.008,0,0,1-.452-1.807,3.7,3.7,0,0,1,1.066-2.614,3.52,3.52,0,0,1,2.674-1.126,3.413,3.413,0,0,1,2.192.777,20.549,20.549,0,0,0,4.866,3.029,15.257,15.257,0,0,0,5.968,1.03,12.523,12.523,0,0,0,4.384-.741,8.568,8.568,0,0,0,3.222-2,3.992,3.992,0,0,0,1.229-2.867,4.868,4.868,0,0,0-1.163-3.288,8.8,8.8,0,0,0-3.547-2.288,27.443,27.443,0,0,0-6.065-1.451,27.162,27.162,0,0,1-6.125-1.578,14.2,14.2,0,0,1-4.414-2.71A10.658,10.658,0,0,1,620,217.964a13.177,13.177,0,0,1-.9-5,11.81,11.81,0,0,1,2.162-7.161,13.571,13.571,0,0,1,5.836-4.517,20.78,20.78,0,0,1,8.124-1.548A23.3,23.3,0,0,1,642.992,201a18.108,18.108,0,0,1,5.836,3.192,4.3,4.3,0,0,1,1.873,3.421,3.674,3.674,0,0,1-1.1,2.578,3.423,3.423,0,0,1-2.578,1.162,2.827,2.827,0,0,1-1.74-.578,11.826,11.826,0,0,0-2.77-1.71,25.327,25.327,0,0,0-3.674-1.355,13.21,13.21,0,0,0-3.614-.548,13.362,13.362,0,0,0-4.673.711,6.473,6.473,0,0,0-2.873,1.933,4.461,4.461,0,0,0-.969,2.837,4.594,4.594,0,0,0,1.126,3.192,7.662,7.662,0,0,0,3.258,2,38.573,38.573,0,0,0,5.1,1.325A52.352,52.352,0,0,1,643,220.831a15.958,15.958,0,0,1,4.866,2.481,9.4,9.4,0,0,1,2.9,3.806,14.342,14.342,0,0,1,.969,5.577,11.521,11.521,0,0,1-2.325,7.221,14.8,14.8,0,0,1-6.095,4.643,20.6,20.6,0,0,1-8.161,1.614Z" transform="translate(-468.124 -198.638)" fill="#073856"/>
      <path id="Path_357" data-name="Path 357" d="M704.879,240.371a1.434,1.434,0,0,1,.518.1,1.93,1.93,0,0,1,.644.548,8.984,8.984,0,0,0,3.421,2.325,12.375,12.375,0,0,0,4.517.777,13.331,13.331,0,0,0,6.42-1.548,11.818,11.818,0,0,0,6.288-10.642,10.513,10.513,0,0,0-6.583-10.413,14.864,14.864,0,0,0-5.806-1.193c-.3,0-.644.012-1.03.03s-.741.054-1.066.1-.506.066-.548.066a1.2,1.2,0,0,1-.933-.385,1.474,1.474,0,0,1-.355-1.03,1.189,1.189,0,0,1,.126-.518,3.415,3.415,0,0,1,.386-.578l13.671-14.96.385.9H704.169a1.317,1.317,0,0,1-1.289-1.289,1.2,1.2,0,0,1,.385-.933,1.307,1.307,0,0,1,.9-.355h22.313a1.083,1.083,0,0,1,1.1.548,2.154,2.154,0,0,1,.259.807,1.169,1.169,0,0,1-.1.482,1.56,1.56,0,0,1-.356.482l-13.611,14.96-1.289-.385c0-.127.356-.259,1.066-.385a10.281,10.281,0,0,1,1.71-.193,15.409,15.409,0,0,1,6.673,1.548,13.1,13.1,0,0,1,5.354,4.71,15.841,15.841,0,0,1-.03,15.8,14.838,14.838,0,0,1-5.643,5.221,16.018,16.018,0,0,1-7.642,1.873,15.175,15.175,0,0,1-5.42-1,12.281,12.281,0,0,1-4.643-3.126,1.323,1.323,0,0,1-.289-.422,1.194,1.194,0,0,1-.1-.482,1.462,1.462,0,0,1,.385-.97,1.221,1.221,0,0,1,.97-.452Z" transform="translate(-501.73 -199.286)" fill="#073856"/>
      <path id="Path_358" data-name="Path 358" d="M771.131,245.445a15.462,15.462,0,0,1-6.673-1.325,12.579,12.579,0,0,1-4.577-3.547,14.839,14.839,0,0,1-2.614-5.029,19.794,19.794,0,0,1-.837-5.709,30.534,30.534,0,0,1,.9-7.161,41.932,41.932,0,0,1,6.739-14.544,35.372,35.372,0,0,1,5.481-5.968,24.5,24.5,0,0,1,6.612-4.125,2.1,2.1,0,0,1,.578-.127,1.515,1.515,0,0,1,1,.355,1.406,1.406,0,0,1,.422,1.126,1.064,1.064,0,0,1-.229.675,1.684,1.684,0,0,1-.675.482,23.35,23.35,0,0,0-5.709,3.71,36.552,36.552,0,0,0-5.191,5.547,38.277,38.277,0,0,0-4.065,6.613,27.46,27.46,0,0,0-2.319,6.968l-1.289,1.162a14.013,14.013,0,0,1,3.258-4.258,15.221,15.221,0,0,1,4.577-2.807,14.379,14.379,0,0,1,5.318-1,11.8,11.8,0,0,1,5.517,1.259,12.963,12.963,0,0,1,4.125,3.354,15.342,15.342,0,0,1,2.614,4.71,16.355,16.355,0,0,1,.9,5.384,14.288,14.288,0,0,1-1.77,6.932,14.442,14.442,0,0,1-4.9,5.288,12.892,12.892,0,0,1-7.191,2.03ZM771,242.861a11.392,11.392,0,0,0,5.836-1.482,10.624,10.624,0,0,0,4-4.1,12.317,12.317,0,0,0,1.451-6.095,14.453,14.453,0,0,0-1.193-5.836,10.644,10.644,0,0,0-3.613-4.481,10.16,10.16,0,0,0-6.095-1.74,12.365,12.365,0,0,0-6.673,1.71,11.4,11.4,0,0,0-4.192,4.517,13.056,13.056,0,0,0-1.451,6.095,11.657,11.657,0,0,0,1.385,5.517,10.969,10.969,0,0,0,4.065,4.258,12.145,12.145,0,0,0,6.48,1.644Z" transform="translate(-523.03 -197.91)" fill="#073856"/>
      <path id="Path_359" data-name="Path 359" d="M829.772,246.177a11.907,11.907,0,0,1-8.449-3.126,18.9,18.9,0,0,1-5-8.413,42.378,42.378,0,0,1,0-23.379,18.894,18.894,0,0,1,5-8.383,13.024,13.024,0,0,1,16.929,0,19.075,19.075,0,0,1,4.969,8.383,42.387,42.387,0,0,1,0,23.379,19.029,19.029,0,0,1-4.969,8.413A11.881,11.881,0,0,1,829.772,246.177Zm0-2.71a9.478,9.478,0,0,0,6.865-2.644,16.416,16.416,0,0,0,4.125-7.287,36.85,36.85,0,0,0,1.385-10.575,37.54,37.54,0,0,0-1.385-10.642,16.223,16.223,0,0,0-4.125-7.257,10.331,10.331,0,0,0-13.737,0,16.115,16.115,0,0,0-4.126,7.257,41.319,41.319,0,0,0,0,21.217,16.421,16.421,0,0,0,4.126,7.287A9.484,9.484,0,0,0,829.772,243.467Z" transform="translate(-546.2 -198.642)" fill="#073856"/>
    </g>
  </g>
</svg>
