<svg xmlns="http://www.w3.org/2000/svg" width="444.727" height="96.274" viewBox="0 0 444.727 96.274">
  <g id="Group_5568" data-name="Group 5568" transform="translate(-37.031 -33.534)">
    <g id="Group_5566" data-name="Group 5566" transform="translate(37.031 33.534)">
      <path id="Path_360" data-name="Path 360" d="M84.88,34.043a47.686,47.686,0,0,0-32.346,12.6l.142-12.767-15.451-.34-.181,46.354H83.322l-.083-15.621H67.428a24.828,24.828,0,0,1,42.2,15.621h23.09A47.881,47.881,0,0,0,84.88,34.043Z" transform="translate(-37.031 -33.534)" fill="#83b92b"/>
      <path id="Path_361" data-name="Path 361" d="M132.729,84.262h-.013v-.17H86.439l.083,15.621h16.289c-.127.133-.242.276-.373.408a24.83,24.83,0,0,1-42.33-15.859H37.031a47.865,47.865,0,0,0,80.192,33.591l-.137,12.253,15.451.34.179-45.954C132.719,84.415,132.727,84.339,132.729,84.262Z" transform="translate(-37.031 -34.172)" fill="#005eac"/>
    </g>
    <g id="Group_5567" data-name="Group 5567" transform="translate(155.913 51.667)">
      <path id="Path_362" data-name="Path 362" d="M244.792,70.854a15.848,15.848,0,0,0-5.2-3.765,14.552,14.552,0,0,0-6.09-1.4,16.915,16.915,0,0,0-8.786,2.363,16.7,16.7,0,0,0-6.311,6.791,22.777,22.777,0,0,0-2.325,10.7A22.374,22.374,0,0,0,218.4,96.139a16.393,16.393,0,0,0,6.128,6.644,16,16,0,0,0,8.3,2.251,12.1,12.1,0,0,0,7.2-2.177,15.924,15.924,0,0,0,4.761-5.2v6.275h9.376V66.647h-9.376Zm-1.366,19.711a10.069,10.069,0,0,1-3.544,3.765,8.833,8.833,0,0,1-4.687,1.329,8.677,8.677,0,0,1-4.836-1.366,9.361,9.361,0,0,1-3.285-3.691,11,11,0,0,1-1.181-5.057,11.616,11.616,0,0,1,1.181-5.2,10.393,10.393,0,0,1,3.285-3.913,8.313,8.313,0,0,1,4.983-1.513,10.631,10.631,0,0,1,5.13,1.255,16.449,16.449,0,0,1,4.246,3.323l.073,5.315A11.587,11.587,0,0,1,243.426,90.565Z" transform="translate(-158.173 -52.073)" fill="#162d59"/>
      <path id="Path_363" data-name="Path 363" d="M284.37,95.837a4.836,4.836,0,0,1-3.8-1.44,5.7,5.7,0,0,1-1.293-3.949V74.355H290.5V66.53H279.277V56.416h-5.609a33.309,33.309,0,0,1-4.062,8.489,11.962,11.962,0,0,1-5.978,4.651v4.8h6.2v18.53a12.342,12.342,0,0,0,1.587,6.384,11.065,11.065,0,0,0,4.281,4.172,12.319,12.319,0,0,0,6.017,1.476,16.336,16.336,0,0,0,5.649-.885,9.634,9.634,0,0,0,3.727-2.29V93.77a22.466,22.466,0,0,1-2.879,1.4A10.1,10.1,0,0,1,284.37,95.837Z" transform="translate(-158.774 -51.956)" fill="#162d59"/>
      <path id="Path_364" data-name="Path 364" d="M326.623,68.05a18,18,0,0,0-9.412-2.363,17.729,17.729,0,0,0-9.744,2.731,19.586,19.586,0,0,0-6.756,7.272,20.565,20.565,0,0,0-2.472,10,19.123,19.123,0,0,0,1.549,7.752,18.488,18.488,0,0,0,4.355,6.164,19.781,19.781,0,0,0,6.423,4.024,21.251,21.251,0,0,0,7.752,1.4,18.814,18.814,0,0,0,5.316-.738,23.448,23.448,0,0,0,4.5-1.809,17.227,17.227,0,0,0,3.174-2.1V91.6a23.869,23.869,0,0,1-5.2,3.323,16.512,16.512,0,0,1-7.419,1.624,11.811,11.811,0,0,1-5.795-1.4,10.046,10.046,0,0,1-3.949-3.839,10.279,10.279,0,0,1-1.139-3.1h26.977V84.216a21.111,21.111,0,0,0-2.1-9.634A15.684,15.684,0,0,0,326.623,68.05ZM307.984,81.78a12.523,12.523,0,0,1,.737-2.251,9.787,9.787,0,0,1,3.285-4.1,8.46,8.46,0,0,1,4.983-1.476,9.951,9.951,0,0,1,4.061.848,7.987,7.987,0,0,1,3.21,2.585,8.354,8.354,0,0,1,1.515,4.392Z" transform="translate(-159.211 -52.073)" fill="#162d59"/>
      <path id="Path_365" data-name="Path 365" d="M378.627,88.731l-7.973-22.073h-6.791l-7.973,22.073-6.865-22.073H338.837l12.845,37.281h6.865l8.712-24.14,8.711,24.14h6.791l12.92-37.281H385.492Z" transform="translate(-159.723 -52.085)" fill="#162d59"/>
      <path id="Path_366" data-name="Path 366" d="M427.864,70.854a15.848,15.848,0,0,0-5.2-3.765,14.552,14.552,0,0,0-6.09-1.4,16.915,16.915,0,0,0-8.786,2.363,16.7,16.7,0,0,0-6.311,6.791,22.765,22.765,0,0,0-2.325,10.7,22.362,22.362,0,0,0,2.325,10.594,16.386,16.386,0,0,0,6.128,6.644,16,16,0,0,0,8.3,2.251,12.1,12.1,0,0,0,7.2-2.177,15.934,15.934,0,0,0,4.761-5.2v6.275h9.375V66.647h-9.375ZM426.5,90.565a10.067,10.067,0,0,1-3.543,3.765,8.839,8.839,0,0,1-4.688,1.329,8.676,8.676,0,0,1-4.835-1.366,9.354,9.354,0,0,1-3.285-3.691,11,11,0,0,1-1.181-5.057,11.616,11.616,0,0,1,1.181-5.2,10.384,10.384,0,0,1,3.285-3.913,8.313,8.313,0,0,1,4.983-1.513,10.634,10.634,0,0,1,5.13,1.255,16.461,16.461,0,0,1,4.245,3.323l.074,5.315A11.587,11.587,0,0,1,426.5,90.565Z" transform="translate(-160.485 -52.073)" fill="#162d59"/>
      <path id="Path_367" data-name="Path 367" d="M476.122,66.659,465.831,90.422l-10.6-23.764H444.305l16.125,34.517-11.253,20.481h10.63l27.093-55Z" transform="translate(-161.055 -52.085)" fill="#162d59"/>
      <path id="Path_368" data-name="Path 368" d="M208.337,75.816h-22.28v9.655H197.6a16.169,16.169,0,1,1-.7-16.459l8.855-4.247a25.943,25.943,0,1,0-6.712,33.689c-.063.048-.121.1-.186.151v5.148h9.655V84.136h0V75.816h-.174Zm0,8.963c-.053.194-.126.378-.185.57.063-.208.126-.416.185-.625Z" transform="translate(-157.433 -51.899)" fill="#162d59"/>
    </g>
  </g>
</svg>
