<?xml version="1.0" encoding="UTF-8"?>
<svg id="Layer_1" xmlns="http://www.w3.org/2000/svg" version="1.1" viewBox="0 0 1102.25 296.47">
  <!-- Generator: Adobe Illustrator 29.5.1, SVG Export Plug-In . SVG Version: 2.1.0 Build 141)  -->
  <defs>
    <style>
      .st0 {
        fill: #fff;
      }

      .st1 {
        fill: #e3ff65;
      }

      .st2 {
        fill: #152644;
      }

      .st3 {
        fill: none;
        stroke: #e3ff65;
        stroke-miterlimit: 10;
      }
    </style>
  </defs>
  <g>
    <g>
      <path class="st1" d="M470.51,142.54h18.88c25.39,0,38.15,7.29,38.15,22.01,0,5.99-2.21,10.94-6.64,14.58-4.3,3.65-10.94,6.12-19.66,7.42,10.55.78,18.36,3.39,23.57,7.81,5.08,4.56,7.68,10.16,7.68,16.8,0,5.86-1.82,10.94-5.21,15.24-3.52,4.17-7.94,6.77-13.41,8.07-5.47,1.3-12.63,1.82-21.75,1.82h-21.62v-93.76ZM483.92,185.25h3.52c9.9,0,16.54-1.56,20.18-4.69,3.65-3.12,5.34-8.07,5.34-15.11,0-4.82-.65-8.59-2.08-11.2-1.43-2.74-3.65-4.69-6.38-6.12-2.86-1.56-7.55-2.21-14.45-2.21-1.82,0-4.56,0-6.12.13v39.2ZM483.92,232.39h11.85c7.29,0,12.76-1.04,16.41-4.69,3.65-3.78,5.47-9.38,5.47-16.93s-2.08-13.28-6.12-16.93c-4.17-3.65-11.33-5.47-21.75-5.47-1.69,0-4.3.13-5.86.13v43.88Z"/>
      <path class="st1" d="M572.86,142.54v93.76h-13.54v-93.76h13.54Z"/>
      <path class="st1" d="M612.83,155.17c9.38-8.46,17.84-12.63,31.9-12.63s22.79,4.17,32.16,12.5c9.51,8.33,14.19,19.79,14.19,34.25s-4.56,25.39-13.54,33.99c-9.12,8.72-17.84,13.02-32.68,13.02s-23.05-4.3-32.29-13.02c-9.12-8.59-13.8-20.18-13.8-34.51s4.69-25.13,14.06-33.6ZM622.73,221.97c5.86,7.29,11.46,10.94,23.05,10.94,10.29,0,16.8-3.65,22.66-10.94,5.86-7.29,7.29-18.1,7.29-32.55s-1.3-24.87-7.16-32.29c-5.86-7.55-12.76-11.2-23.83-11.2s-16.15,3.65-22.01,10.94c-5.73,7.29-8.59,18.1-8.59,32.42s2.86,25.39,8.59,32.68Z"/>
      <path class="st1" d="M780.94,145.66h-39.07v90.63h-13.54v-90.63h-38.67l.13-3.12h91.15v3.12Z"/>
      <path class="st1" d="M827.94,233.04h28.78v3.26h-54.43v-93.76h54.69v3.12h-41.28v39.72h27.08v3.25h-27.08v44.4h12.24Z"/>
      <path class="st1" d="M940.32,222.62c-7.94,8.99-18.1,13.67-30.47,13.67-13.02,0-23.7-4.17-32.03-12.37-8.2-8.33-12.37-19.27-12.37-32.81,0-8.99,1.82-17.32,5.73-25.26,3.78-7.94,9.12-13.8,16.02-17.58,6.77-3.78,14.32-5.73,22.53-5.73,6.77,0,12.89,1.43,18.36,4.17,5.34,2.73,9.38,5.73,12.11,8.98v.39l-2.6,2.47c-1.43-2.21-3.26-4.04-5.08-5.47-6.25-4.82-13.15-7.16-20.83-7.16-9.51,0-17.06,3.91-22.66,11.59-5.6,7.68-8.33,18.62-8.33,32.95,0,13.54,3,23.96,9.12,31.25,6.12,7.16,13.67,10.81,22.79,10.81,4.82,0,9.77-1.17,14.84-3.52,4.17-1.95,7.55-4.95,10.29-9.12l2.6,2.73Z"/>
      <path class="st1" d="M1038.5,142.54v93.76h-13.54v-47.66h-50v47.66h-13.54v-93.76h13.54v42.84h50v-42.84h13.54Z"/>
    </g>
    <g>
      <path class="st0" d="M275.44,59.55h-2.4c-33.79,0-61.18,27.39-61.18,61.18h0v115.39h50.97v-115.39c0-6.39,5.78-11.19,11.42-11.19s11.42,4.8,11.42,11.19v115.39h50.97v-115.39h0c0-33.79-27.39-61.18-61.18-61.18Z"/>
      <path class="st0" d="M404.56,111.16h40.41v-50.23h-51.06c-27.74,0-50.23,22.49-50.23,50.23h0v17.85h0v39.02h0v17.85h0c0,27.74,22.49,50.23,50.23,50.23h51.06v-50.23h-40.41c-4.93,0-8.93-4-8.93-8.93s4-8.93,8.93-8.93h37.09v-39.02h-37.09c-4.93,0-8.93-4-8.93-8.93s4-8.93,8.93-8.93Z"/>
      <g>
        <g>
          <circle class="st2" cx="152.44" cy="147.83" r="83.1"/>
          <circle class="st3" cx="152.44" cy="147.83" r="83.1"/>
        </g>
        <g>
          <path class="st1" d="M152.44,59.55c-48.98,0-88.69,39.71-88.69,88.69s39.71,88.69,88.69,88.69,88.69-39.71,88.69-88.69-39.71-88.69-88.69-88.69ZM197.83,135.92c1.38-4.66,4.61-7.51,8.64-9.72,1.23-.68,2.42-.18,2.77,1.17.18.73.21,1.49.34,2.51-1.2,5.59-3.3,10.94-8.67,14.24-1.19.73-2.72,1.04-4.13,1.22-.69.08-1.69-.42-2.14-.99-.3-.37,0-1.38.27-2.01.94-2.16,2.26-4.2,2.92-6.43ZM195.64,125.43c.06-1.11.61-1.8,1.81-1.79,1.18.02,1.89.89,1.88,2.31,0,1.17-.45,2-1.74,2-1.08,0-2.02-1.22-1.95-2.53ZM197.17,148.58c1.21.18,1.58,1.19.76,2.13-.58.67-1.36,1.23-2.16,1.62-2.83,1.4-5.7,2.74-8.58,4.04-1.56.7-1.92-4.64-1.01-5.27,3.29-2.29,7.01-3.11,11-2.52ZM191.29,133.1c-3.68,1.33-7.32,2.79-10.97,4.2-.6.23-1.18.53-1.79.74-1.8.62-2.63.04-2.72-1.89-.02-.43,0-.86,0-.84-.36-5.86,4.01-11.29,9.99-12.6,1.63-.36,3.39-.08,5.09-.08.16,0,.32.04.47.1,3.22,1.32,2.5,4.32,2.75,6.8.19,1.95-.83,2.84-2.82,3.55ZM188.11,136.48c.63-.22,1.62-.04,2.17.35.36.26.49,1.32.27,1.84-3.39,8.13-9.81,12.47-18.41,14.52.12-.65.14-1.03.26-1.36,2.81-7.6,8.12-12.66,15.7-15.35ZM197.63,152.63c1.45-.64,7.31-.75,8.4-.06,1.14.72,2.16.82,3.34.38.35-.13.7-.27,1.06-.39,1.08-.35,2.4-.95,3.11.19.62.99,1.11,2.5.81,3.55-.89,3.16-3.03,6-5.78,7.28-4.22,1.97-8.92,2.98-13.49,4.14-3.74.95-7.58,1.52-11.37,2.24-1.35.25-2.74.46-3.63-.95-.84-1.33-.46-2.62.45-3.73.98-1.21,1.97-2.44,3.14-3.45,4.23-3.69,8.79-6.92,13.96-9.19ZM211.36,147.12c-1.04.51-4.36.82-4.83.72-2.34-.52-3.08-2.08-1.62-4.01,1.45-1.92,3.07-3.75,4.87-5.34,3.31-2.94,7.27-4.75,11.54-5.86,1.95-.51,3,.46,2.47,2.39-.29,1.06-.83,2.12-1.49,3-2.89,3.91-6.56,6.95-10.93,9.1ZM223.32,128.84c-3.2.92-6.46,1.66-9.71,2.37-.33.07-1.07-.47-1.16-.84-.29-1.19-.36-2.44-.52-3.66.08-4.92,2.46-8.4,6.56-10.82,1.63-.96,2.61-.64,3.3,1.13,1.1,2.8,2.11,5.64,3.09,8.49.56,1.65.07,2.85-1.56,3.32ZM216.35,112.09c-.15,1.67-1.04,2.71-2.25,2.63-1.45-.1-2.68-1.41-2.68-2.91,0-.27.03-.54.07-.8.37-2.17,1.42-3.34,2.91-3.24,1.34.09,1.92,1.13,1.95,3.52,0,.27.02.54,0,.8ZM207.81,106.68c-2.15.03-3.36-1.2-3.37-3.41-.01-3.27,1.94-5.49,4.83-5.49,2.09,0,3.49,1.52,3.49,3.8,0,2.86-2.14,5.06-4.95,5.1ZM204.93,111.05c1.02-.93,2.2-1.43,3.55-.84,1.37.6,1.21,1.88,1.18,3.07-.01.48,0,.97,0,1.45.07.01-.21,3.68-.72,5.4-.81,2.75-2.91,3.75-5.53,2.91-2.42-.77-3.41-2.71-2.63-5.38.75-2.58,2.16-4.79,4.15-6.61ZM201.7,104.76c-.62,8.2-5.17,13.25-13.33,14.97-1.45.3-2.8,1.05-4.19,1.62-1.03.43-2.21.94-2.97-.08-.57-.76-.96-1.98-.82-2.91,1.2-7.79,8.64-15.24,16.44-16.61.63-.11,1.29-.12,1.53-.14,3-.03,3.53.54,3.33,3.15ZM200.38,94.41c-.44,3.36-4.5,6.47-8.85,6.77-.43.03-.86,0-1.29,0-3.86,0-5.11-1.16-5.44-4.97-.14-1.61-.48-3.21-.44-4.81.13-5.22,4-7.9,9.1-6.42.05.01.1.04.15.06,4.13,1.29,7.26,5.62,6.77,9.36ZM182.78,85.09c-1.01.32-2.67.35-3.28-.25-.81-.8-.97-2.33-1.23-3.59-.11-.52.27-1.13.39-1.71.49-2.33.94-2.83,2.57-2.81,2,.03,3.57,1.33,3.83,3.21.05.37.05.75.06,1.07-.08,1.82-.56,3.5-2.36,4.08ZM178.73,97.38c.4-.59,1.56-1.07,2.25-.95.7.12.58,5.2.24,6.87-.52,2.52-.62,5.15-1.37,7.59-.89,2.89-2.19,5.68-3.52,8.41-.3.61-1.61,1.26-2.16,1.06-.69-.24-1.51-1.33-1.54-2.07-.26-7.62,1.85-14.61,6.1-20.92ZM177.17,95.43c-1.13,2.2-9.12,2.29-10.78,1.48-1.22-.59-1.28-1.65-.32-2.64.44-.45.99-.83,1.54-1.16,2.14-1.29,4.03-2.79,5.39-4.97,1.13-1.8,2.89-1.79,4.04-.06,1.57,2.38,1.39,4.89.13,7.33ZM115.6,108.06c-4.95-1.46-5.61-4.12-4.07-8.64.55-1.61,1.18-3.25,2.08-4.69,1.43-2.28,3.62-2.79,6.04-1.58,3.71,1.86,5.39,5.09,5.87,9.06.14,1.12.21,2.24.35,3.74-.29,2.14-.47,4.68-1.04,7.13-.37,1.58-1.16,3.13-2.05,4.5-.37.58-1.75,1.13-2.21.87-.64-.36-.98-1.46-1.21-2.3-.14-.52.19-1.15.23-1.74.22-3.32-.84-5.43-3.98-6.36ZM121.38,159.46c-.37,1.71-1.96,2.94-4.05,3.13-.48.04-.97,0-1.45,0,0,.02-5.71-.08-8.5-.55-5.33-.91-7.8-4.75-8.94-9.63-.4-1.72-.73-3.49-.8-5.24-.11-2.44,1.33-3.81,3.73-3.48,2.92.41,5.84.94,8.67,1.76,3.18.92,5.26,3.18,5.8,6.5.33,2.04,1.5,3.24,3.12,4.21,1.27.76,2.86,1.29,2.43,3.3ZM133.38,173.45c-3.48,1.92-13.82-2.18-16.58-6.64,5.86-3.03,13.92.24,16.58,6.64ZM104.64,129.8c1.91,2.17,3.54,4.59,5.24,6.95.68.94,1.09,1.99.43,3.17-.66,1.17-1.75,1.08-2.84,1.03-.22,0-.43,0-.65,0,0,.04-2.8-.18-4.16-.47-8.03-1.73-9.67-8.25-9.24-13.65.17-2.08,1.55-2.91,3.54-2.24,3.03,1.02,5.59,2.86,7.67,5.21ZM102.78,101.51c-1.06-1.34-1.95-2.84-2.8-4.33-.83-1.45-.43-2.92.63-4.03,1.79-1.86,3.67-3.64,5.64-5.3,1.29-1.09,3.04-.49,3.65,1.18.36.99.41,2.09.6,3.14.07.04-1.18,5.86-2.21,8.61-.99,2.64-3.75,2.95-5.51.73ZM106.13,126.33c0-.73.39-1.8.96-2.13,1.59-.94,3.42-.96,5.1-.17,1.55.73,1.55,2.31,1.69,3.97-.17,1.24-.3,2.69-.56,4.11-.32,1.69-1.23,2.12-2.8,1.35-1.85-.91-2.9-2.51-3.61-4.36-.35-.9-.78-1.84-.78-2.77ZM115.91,118.35c-.06,1.33.15,2.78-1.34,3.55-1.51.78-2.92.21-4.04-.74-1.46-1.24-2.92-2.57-4.04-4.11-1.59-2.17-.92-5.16,1.18-6.55,2.01-1.33,5.27-.73,6.5,1.57,1.01,1.89,1.88,6.23,1.75,6.28ZM113.72,82.6c.73-.34,1.51-.57,2.28-.79,1.68-.47,2.43.12,2.43,2.16-.09.52-.18,1.33-.4,2.1-.46,1.67-1.52,2.36-3.25,2.22-1.56-.13-3.11-1.24-3.25-2.47-.19-1.65.83-2.6,2.18-3.22ZM122.62,80.12c.99-1.98,2.05-2.15,3.59-.53.62.65,1.26,1.42,1.51,2.25.68,2.3,1.31,9.25.99,10.26-.57,1.81-2.63,2.38-3.82.92-3.35-4.09-4.81-7.83-2.26-12.9ZM121.41,130.04c.52-.53,3.18-.38,3.48-.26,4.34,1.8,9.86,10.03,10.17,14.88-.45.78-.76,1.99-1.41,2.21-.65.22-1.82-.35-2.44-.93-4.16-3.83-7.18-8.53-9.83-13.47-.36-.66-.39-2.01.03-2.44ZM129.56,128.02c-.3.43-1.23.68-1.83.61-1.71-.19-2.98-1.17-3.74-2.72-1.26-2.56-.21-4.21,2.65-4.22,1.45-.06,2.71.3,3.35,1.72.72,1.59.52,3.21-.43,4.6ZM129.3,116.61c-1.5-3.5-1.71-6.62-.92-9.74.5-1.96,1.28-3.87,2.14-5.71.9-1.91,2.3-2.07,3.88-.66,2.06,1.84,2.53,4.01,1.12,6.34-1.91,3.16-3.96,6.23-6.22,9.76ZM137.13,80.44c2.87,5.48,3.87,11.25,2.41,17.33-.19.79-.81,1.9-1.42,2.04-.67.15-1.78-.47-2.29-1.08-.68-.82-1.13-1.93-1.37-2.98-.22-.97-.05-2.03-.05-3.55.63-3.26-1.28-6.53-2.04-10.02-.3-1.4-1.03-2.9.88-3.74,1.44-.63,2.87.12,3.86,2.02ZM137.08,72.94c.86-.56,1.96-.8,2.99-1.01,1.15-.24,2.35-.22,3.51-.45,2.6-.51,3.72.28,3.96,2.94.05.59.06,1.18.08,1.77.11,2.71-.54,5-3.24,6.28-.99.47-1.89.48-2.65-.33-1.77-1.87-3.58-3.71-5.22-5.68-1.13-1.37-.94-2.54.57-3.52ZM135.06,120.89c.33-4.54,1.39-8.91,3.46-12.99,1.08-2.14,2.23-2.61,4.48-1.98,4.89,1.36,8.81,7.93,6.05,12.87-1.57,2.81-2.86,5.77-4.3,8.65-.84,1.68-1.87,2.11-3.56,1.27-1.38-.68-2.73-1.52-3.9-2.51-1.58-1.34-2.41-3.14-2.22-5.31ZM146.86,104.09c0-2.92,1.87-4.8,4.73-4.75,2.32.04,3.44,1.2,3.4,3.53-.05,3.05-1.69,4.82-4.45,4.8-2.27-.02-3.68-1.39-3.68-3.58ZM153.39,95.81c-1.52.53-3.02,1.1-4.51,1.69-2.33.92-3.58.17-3.82-2.38-.45-4.88.92-9.01,4.95-12.08,1.6-1.22,3.26-1.93,5.22-1.05,1.88.85,2.33,2.54,2.39,4.4.02.59,0,1.18,0,1.77.04,0-.08,2.26-.3,3.36-.44,2.2-1.84,3.56-3.94,4.29ZM157.07,106.91c.58-1.27,1.01-2.61,1.69-3.82.51-.92,1.18-1.83,1.99-2.48,2.28-1.82,4.52-.99,5.2,1.83,1.08,4.44-1.21,7.82-5.35,7.96-.86-.27-1.76-.44-2.56-.83-1.11-.54-1.53-1.44-.97-2.67ZM163.32,116.72c.46-2.08,1.74-4.01,2.84-5.9.65-1.12,1.77-1.77,3.18-1.24,1.29.49,1.11,1.63,1.18,2.72.26,4.12.53,8.25.93,12.36.2,2.05-.06,3.92-1.53,5.38-1.41,1.4-2.92,2.71-4.51,3.9-1.36,1.03-2.93.11-3.09-1.83-.14-1.6-.03-3.23-.03-4.84-.11-.01.27-7.12,1.04-10.56ZM172.42,81.74c-1.05,5.33-7.25,11.56-12.53,12.56-.3.06-.62,0-1.22,0,.52-1.9,1.14-3.57,1.4-5.3.36-2.42.54-4.88.6-7.33.04-1.56.45-2.86,1.58-3.9,1.61-1.47,3.56-2.23,5.71-2.29,3.07-.08,5.13,2.87,4.46,6.26ZM154.96,79.54c-.91-.06-1.84-.03-2.73-.19-1.49-.27-2.07-1.19-1.83-2.69.52-3.32,5.41-6.39,8.59-5.27.62.22,1.34,1.04,1.46,1.68.81,4.49-1,6.55-5.49,6.47ZM99.05,103.31c2.49,3.22,2.93,11,2.77,11.08-.89-.99-1.79-1.98-2.67-2.98-1.63-1.83-3.49-3.28-5.9-4.03-2.23-.7-2.59-2.05-1.24-3.91,2.65-3.67,4.28-3.72,7.04-.15ZM96.62,117.5c.38,1.44-.06,2.34-1.48,2.71-2.31.6-4.63.86-7.01.3-2.42-.57-3.67-2.08-3.46-4.31.23-2.37,2.06-3.95,4.51-3.9,3.46.07,6.67,2.31,7.44,5.2ZM86.64,127.33c.07.44.15.83.18,1.23.23,3.48,2,6.23,4.33,8.61,5.53,5.66,6.38,16.16,4.99,23.1-1.74-1.8-3.38-3.13-4.58-4.79-4.15-5.76-7.01-12.21-9.34-18.87-1.22-3.49.88-7.61,4.42-9.3ZM84.78,146.15c.21.48.21,1.04.33,1.67-.12.61-.08,1.42-.46,1.92-.36.48-1.29,1.04-1.74.89-5.28-1.79-8.68-8.36-4.94-13.52,1.28-1.76,2.21-1.62,2.94.2,1.2,2.98,2.59,5.88,3.86,8.84ZM77.6,156.47c.17-.59.89-1.22,1.51-1.45,2.67-1.02,6.15.61,7.93,3.51-1.57.72-3.07,1.36-4.53,2.07-1.23.6-2.42.93-3.61-.07-1.28-1.08-1.75-2.5-1.3-4.06ZM82.34,167.09c1.78-1.17,3.93-2.08,6.02-2.44,5.45-.95,10.82-.45,15.88,2.07.53.26,1.03.58,1.53.89.12.07.18.24.33.46-1.53,1.68-3.51,2.03-5.57,1.87-5.69-.44-10.72,1.09-15.15,4.69-1.81,1.47-3,1.25-4.22-.71-1.56-2.51-1.3-5.19,1.18-6.82ZM88.65,176.23c5.41-2.81,11.21-3.67,16.36-3.45,6.38.05,11.84.44,17.18,1.94,11.63,3.28,18.31,11.78,18.58,23.84.07,2.95-.03,5.94-.39,8.86-1.03,8.48-6.48,11.75-14.6,11.3-5.59-.31-10.53-2.49-15.12-5.57-10.49-7.04-18.18-16.55-24.31-27.45-.13-.23-.26-.47-.39-.71-2.45-4.45-1.86-6.4,2.71-8.77ZM140.26,169.41c-.27.25-1.27.01-1.73-.31-6.95-4.93-13.35-10.4-17.55-18.01-2.4-4.35-3.8-9.01-4.07-13.98-.03-.61.08-1.3.33-1.85.35-.75,1.06-1.02,1.71-.36.94.95,1.97,1.89,2.61,3.03,3.5,6.28,7.88,11.76,13.56,16.26,4.07,3.22,5.63,7.88,6.33,13.32-.27.47-.59,1.35-1.21,1.9ZM137.52,143.69c-.95-2.97-2.11-5.87-3.09-8.83-.8-2.4-.47-3.88.85-4.66,1.48-.87,3.49-.39,5.04,1.35.63.7,1.15,1.57,1.48,2.45,1.91,5.13,3.68,10.31,5.62,15.43,1.59,4.2,2.89,8.44,2.72,12.99,0,2.2.05,4.41-.01,6.61-.05,1.88-.97,2.85-2.68,3.05-1.93.23-3.14-.52-3.7-2.31-.09-.31-.21-.62-.22-.94-.21-8.81-3.37-16.92-6.01-25.14ZM148.29,133.3c1.09-4.2,2.6-8.3,3.96-12.43.2-.6.54-1.18.93-1.69.99-1.27,2.28-1.47,3.28-.24.91,1.13,1.73,2.54,2.01,3.94.64,3.26.93,6.58,1.32,9.54-.33,2.96-.6,5.52-.9,8.08-.3,2.52-1.77,4.35-3.7,5.84-1.52,1.18-2.8,1.09-3.91-.43-2.74-3.77-4.17-7.98-2.97-12.61ZM157.67,152.56c3.02-6.08,7.5-11.16,11.72-16.39.45-.56,1.65-.93,2.35-.75.48.12.94,1.31.99,2.05.45,7.91-2.29,14.77-7.09,20.93-1.76,2.25-3.53,4.49-5.2,6.8-2.14,2.96-3.67,6.2-4.19,9.86-.03.24-.17.46-.38,1.01-1.52-2.1-2.23-4.19-2.35-6.45-.33-6.09,1.5-11.7,4.15-17.06ZM160.84,173.05c3.49-9.45,9.99-15.89,19.76-18.79.84-.25,1.75-.26,2.63-.38.09.15-5.83,9.17-7.31,14.38-.77,2.7-2.4,4.99-4.65,6.64-2.6,1.9-5.35,3.59-8.11,5.24-1.58.94-2.72.41-2.82-1.4-.1-1.89-.13-3.96.51-5.69ZM161.13,195.95c.73-10.58,6.61-17.22,16.5-20.43,7.65-2.48,15.53-4.12,23.56-4.53,5.31-.27,10.65.32,15.81,1.82.92.27,1.83.68,2.62,1.2,1.34.88,1.89,2.19,1.41,3.78-.25.82-.55,1.64-.93,2.4-7.72,15.49-19.1,27.51-34.24,35.93-2.8,1.56-5.69,2.84-9,2.82-4.52-.12-8.06-2.19-10.75-5.68-3.93-5.09-5.42-11-4.98-17.31ZM221.11,168.94c-2.64.65-12.68.76-14.95.38-.51-.09-1.23-.51-1.35-.93-.11-.38.36-1.06.74-1.43,4.34-4.13,9.62-4.75,15.23-3.92,1.49.22,2.66.99,2.74,2.68.09,1.71-.94,2.85-2.42,3.22ZM222.29,161.99c-.67-.15-1.99-.38-3.28-.75-1.35-.39-2.01-1.38-1.95-2.8.06-1.41,1.09-2.79,2.48-2.72,1.83.1,3.72.47,5.42,1.14,1.32.51,1.6,1.95,1.2,3.33-.47,1.64-1.8,1.8-3.88,1.8ZM226.06,148.18c-1.97,2.35-4.66,2.91-7.38,3.06-2.05.01-3.17-.73-3.41-2.18-.28-1.66.42-2.64,2.37-3.24,2.62-.8,5.25-1.12,7.88-.03,1.64.67,1.71,1,.54,2.39ZM224.2,143.17c-1.23.01-2.05-.87-2.02-2.19.04-2.22,1.99-4.51,3.85-4.45,1.39.04,1.77.98,1.77,2.18-.03,2.3-1.75,4.44-3.6,4.46Z"/>
          <path class="st3" d="M152.44,59.55c-48.98,0-88.69,39.71-88.69,88.69s39.71,88.69,88.69,88.69,88.69-39.71,88.69-88.69-39.71-88.69-88.69-88.69ZM197.83,135.92c1.38-4.66,4.61-7.51,8.64-9.72,1.23-.68,2.42-.18,2.77,1.17.18.73.21,1.49.34,2.51-1.2,5.59-3.3,10.94-8.67,14.24-1.19.73-2.72,1.04-4.13,1.22-.69.08-1.69-.42-2.14-.99-.3-.37,0-1.38.27-2.01.94-2.16,2.26-4.2,2.92-6.43ZM195.64,125.43c.06-1.11.61-1.8,1.81-1.79,1.18.02,1.89.89,1.88,2.31,0,1.17-.45,2-1.74,2-1.08,0-2.02-1.22-1.95-2.53ZM197.17,148.58c1.21.18,1.58,1.19.76,2.13-.58.67-1.36,1.23-2.16,1.62-2.83,1.4-5.7,2.74-8.58,4.04-1.56.7-1.92-4.64-1.01-5.27,3.29-2.29,7.01-3.11,11-2.52ZM191.29,133.1c-3.68,1.33-7.32,2.79-10.97,4.2-.6.23-1.18.53-1.79.74-1.8.62-2.63.04-2.72-1.89-.02-.43,0-.86,0-.84-.36-5.86,4.01-11.29,9.99-12.6,1.63-.36,3.39-.08,5.09-.08.16,0,.32.04.47.1,3.22,1.32,2.5,4.32,2.75,6.8.19,1.95-.83,2.84-2.82,3.55ZM188.11,136.48c.63-.22,1.62-.04,2.17.35.36.26.49,1.32.27,1.84-3.39,8.13-9.81,12.47-18.41,14.52.12-.65.14-1.03.26-1.36,2.81-7.6,8.12-12.66,15.7-15.35ZM197.63,152.63c1.45-.64,7.31-.75,8.4-.06,1.14.72,2.16.82,3.34.38.35-.13.7-.27,1.06-.39,1.08-.35,2.4-.95,3.11.19.62.99,1.11,2.5.81,3.55-.89,3.16-3.03,6-5.78,7.28-4.22,1.97-8.92,2.98-13.49,4.14-3.74.95-7.58,1.52-11.37,2.24-1.35.25-2.74.46-3.63-.95-.84-1.33-.46-2.62.45-3.73.98-1.21,1.97-2.44,3.14-3.45,4.23-3.69,8.79-6.92,13.96-9.19ZM211.36,147.12c-1.04.51-4.36.82-4.83.72-2.34-.52-3.08-2.08-1.62-4.01,1.45-1.92,3.07-3.75,4.87-5.34,3.31-2.94,7.27-4.75,11.54-5.86,1.95-.51,3,.46,2.47,2.39-.29,1.06-.83,2.12-1.49,3-2.89,3.91-6.56,6.95-10.93,9.1ZM223.32,128.84c-3.2.92-6.46,1.66-9.71,2.37-.33.07-1.07-.47-1.16-.84-.29-1.19-.36-2.44-.52-3.66.08-4.92,2.46-8.4,6.56-10.82,1.63-.96,2.61-.64,3.3,1.13,1.1,2.8,2.11,5.64,3.09,8.49.56,1.65.07,2.85-1.56,3.32ZM216.35,112.09c-.15,1.67-1.04,2.71-2.25,2.63-1.45-.1-2.68-1.41-2.68-2.91,0-.27.03-.54.07-.8.37-2.17,1.42-3.34,2.91-3.24,1.34.09,1.92,1.13,1.95,3.52,0,.27.02.54,0,.8ZM207.81,106.68c-2.15.03-3.36-1.2-3.37-3.41-.01-3.27,1.94-5.49,4.83-5.49,2.09,0,3.49,1.52,3.49,3.8,0,2.86-2.14,5.06-4.95,5.1ZM204.93,111.05c1.02-.93,2.2-1.43,3.55-.84,1.37.6,1.21,1.88,1.18,3.07-.01.48,0,.97,0,1.45.07.01-.21,3.68-.72,5.4-.81,2.75-2.91,3.75-5.53,2.91-2.42-.77-3.41-2.71-2.63-5.38.75-2.58,2.16-4.79,4.15-6.61ZM201.7,104.76c-.62,8.2-5.17,13.25-13.33,14.97-1.45.3-2.8,1.05-4.19,1.62-1.03.43-2.21.94-2.97-.08-.57-.76-.96-1.98-.82-2.91,1.2-7.79,8.64-15.24,16.44-16.61.63-.11,1.29-.12,1.53-.14,3-.03,3.53.54,3.33,3.15ZM200.38,94.41c-.44,3.36-4.5,6.47-8.85,6.77-.43.03-.86,0-1.29,0-3.86,0-5.11-1.16-5.44-4.97-.14-1.61-.48-3.21-.44-4.81.13-5.22,4-7.9,9.1-6.42.05.01.1.04.15.06,4.13,1.29,7.26,5.62,6.77,9.36ZM182.78,85.09c-1.01.32-2.67.35-3.28-.25-.81-.8-.97-2.33-1.23-3.59-.11-.52.27-1.13.39-1.71.49-2.33.94-2.83,2.57-2.81,2,.03,3.57,1.33,3.83,3.21.05.37.05.75.06,1.07-.08,1.82-.56,3.5-2.36,4.08ZM178.73,97.38c.4-.59,1.56-1.07,2.25-.95.7.12.58,5.2.24,6.87-.52,2.52-.62,5.15-1.37,7.59-.89,2.89-2.19,5.68-3.52,8.41-.3.61-1.61,1.26-2.16,1.06-.69-.24-1.51-1.33-1.54-2.07-.26-7.62,1.85-14.61,6.1-20.92ZM177.17,95.43c-1.13,2.2-9.12,2.29-10.78,1.48-1.22-.59-1.28-1.65-.32-2.64.44-.45.99-.83,1.54-1.16,2.14-1.29,4.03-2.79,5.39-4.97,1.13-1.8,2.89-1.79,4.04-.06,1.57,2.38,1.39,4.89.13,7.33ZM115.6,108.06c-4.95-1.46-5.61-4.12-4.07-8.64.55-1.61,1.18-3.25,2.08-4.69,1.43-2.28,3.62-2.79,6.04-1.58,3.71,1.86,5.39,5.09,5.87,9.06.14,1.12.21,2.24.35,3.74-.29,2.14-.47,4.68-1.04,7.13-.37,1.58-1.16,3.13-2.05,4.5-.37.58-1.75,1.13-2.21.87-.64-.36-.98-1.46-1.21-2.3-.14-.52.19-1.15.23-1.74.22-3.32-.84-5.43-3.98-6.36ZM121.38,159.46c-.37,1.71-1.96,2.94-4.05,3.13-.48.04-.97,0-1.45,0,0,.02-5.71-.08-8.5-.55-5.33-.91-7.8-4.75-8.94-9.63-.4-1.72-.73-3.49-.8-5.24-.11-2.44,1.33-3.81,3.73-3.48,2.92.41,5.84.94,8.67,1.76,3.18.92,5.26,3.18,5.8,6.5.33,2.04,1.5,3.24,3.12,4.21,1.27.76,2.86,1.29,2.43,3.3ZM133.38,173.45c-3.48,1.92-13.82-2.18-16.58-6.64,5.86-3.03,13.92.24,16.58,6.64ZM104.64,129.8c1.91,2.17,3.54,4.59,5.24,6.95.68.94,1.09,1.99.43,3.17-.66,1.17-1.75,1.08-2.84,1.03-.22,0-.43,0-.65,0,0,.04-2.8-.18-4.16-.47-8.03-1.73-9.67-8.25-9.24-13.65.17-2.08,1.55-2.91,3.54-2.24,3.03,1.02,5.59,2.86,7.67,5.21ZM102.78,101.51c-1.06-1.34-1.95-2.84-2.8-4.33-.83-1.45-.43-2.92.63-4.03,1.79-1.86,3.67-3.64,5.64-5.3,1.29-1.09,3.04-.49,3.65,1.18.36.99.41,2.09.6,3.14.07.04-1.18,5.86-2.21,8.61-.99,2.64-3.75,2.95-5.51.73ZM106.13,126.33c0-.73.39-1.8.96-2.13,1.59-.94,3.42-.96,5.1-.17,1.55.73,1.55,2.31,1.69,3.97-.17,1.24-.3,2.69-.56,4.11-.32,1.69-1.23,2.12-2.8,1.35-1.85-.91-2.9-2.51-3.61-4.36-.35-.9-.78-1.84-.78-2.77ZM115.91,118.35c-.06,1.33.15,2.78-1.34,3.55-1.51.78-2.92.21-4.04-.74-1.46-1.24-2.92-2.57-4.04-4.11-1.59-2.17-.92-5.16,1.18-6.55,2.01-1.33,5.27-.73,6.5,1.57,1.01,1.89,1.88,6.23,1.75,6.28ZM113.72,82.6c.73-.34,1.51-.57,2.28-.79,1.68-.47,2.43.12,2.43,2.16-.09.52-.18,1.33-.4,2.1-.46,1.67-1.52,2.36-3.25,2.22-1.56-.13-3.11-1.24-3.25-2.47-.19-1.65.83-2.6,2.18-3.22ZM122.62,80.12c.99-1.98,2.05-2.15,3.59-.53.62.65,1.26,1.42,1.51,2.25.68,2.3,1.31,9.25.99,10.26-.57,1.81-2.63,2.38-3.82.92-3.35-4.09-4.81-7.83-2.26-12.9ZM121.41,130.04c.52-.53,3.18-.38,3.48-.26,4.34,1.8,9.86,10.03,10.17,14.88-.45.78-.76,1.99-1.41,2.21-.65.22-1.82-.35-2.44-.93-4.16-3.83-7.18-8.53-9.83-13.47-.36-.66-.39-2.01.03-2.44ZM129.56,128.02c-.3.43-1.23.68-1.83.61-1.71-.19-2.98-1.17-3.74-2.72-1.26-2.56-.21-4.21,2.65-4.22,1.45-.06,2.71.3,3.35,1.72.72,1.59.52,3.21-.43,4.6ZM129.3,116.61c-1.5-3.5-1.71-6.62-.92-9.74.5-1.96,1.28-3.87,2.14-5.71.9-1.91,2.3-2.07,3.88-.66,2.06,1.84,2.53,4.01,1.12,6.34-1.91,3.16-3.96,6.23-6.22,9.76ZM137.13,80.44c2.87,5.48,3.87,11.25,2.41,17.33-.19.79-.81,1.9-1.42,2.04-.67.15-1.78-.47-2.29-1.08-.68-.82-1.13-1.93-1.37-2.98-.22-.97-.05-2.03-.05-3.55.63-3.26-1.28-6.53-2.04-10.02-.3-1.4-1.03-2.9.88-3.74,1.44-.63,2.87.12,3.86,2.02ZM137.08,72.94c.86-.56,1.96-.8,2.99-1.01,1.15-.24,2.35-.22,3.51-.45,2.6-.51,3.72.28,3.96,2.94.05.59.06,1.18.08,1.77.11,2.71-.54,5-3.24,6.28-.99.47-1.89.48-2.65-.33-1.77-1.87-3.58-3.71-5.22-5.68-1.13-1.37-.94-2.54.57-3.52ZM135.06,120.89c.33-4.54,1.39-8.91,3.46-12.99,1.08-2.14,2.23-2.61,4.48-1.98,4.89,1.36,8.81,7.93,6.05,12.87-1.57,2.81-2.86,5.77-4.3,8.65-.84,1.68-1.87,2.11-3.56,1.27-1.38-.68-2.73-1.52-3.9-2.51-1.58-1.34-2.41-3.14-2.22-5.31ZM146.86,104.09c0-2.92,1.87-4.8,4.73-4.75,2.32.04,3.44,1.2,3.4,3.53-.05,3.05-1.69,4.82-4.45,4.8-2.27-.02-3.68-1.39-3.68-3.58ZM153.39,95.81c-1.52.53-3.02,1.1-4.51,1.69-2.33.92-3.58.17-3.82-2.38-.45-4.88.92-9.01,4.95-12.08,1.6-1.22,3.26-1.93,5.22-1.05,1.88.85,2.33,2.54,2.39,4.4.02.59,0,1.18,0,1.77.04,0-.08,2.26-.3,3.36-.44,2.2-1.84,3.56-3.94,4.29ZM157.07,106.91c.58-1.27,1.01-2.61,1.69-3.82.51-.92,1.18-1.83,1.99-2.48,2.28-1.82,4.52-.99,5.2,1.83,1.08,4.44-1.21,7.82-5.35,7.96-.86-.27-1.76-.44-2.56-.83-1.11-.54-1.53-1.44-.97-2.67ZM163.32,116.72c.46-2.08,1.74-4.01,2.84-5.9.65-1.12,1.77-1.77,3.18-1.24,1.29.49,1.11,1.63,1.18,2.72.26,4.12.53,8.25.93,12.36.2,2.05-.06,3.92-1.53,5.38-1.41,1.4-2.92,2.71-4.51,3.9-1.36,1.03-2.93.11-3.09-1.83-.14-1.6-.03-3.23-.03-4.84-.11-.01.27-7.12,1.04-10.56ZM172.42,81.74c-1.05,5.33-7.25,11.56-12.53,12.56-.3.06-.62,0-1.22,0,.52-1.9,1.14-3.57,1.4-5.3.36-2.42.54-4.88.6-7.33.04-1.56.45-2.86,1.58-3.9,1.61-1.47,3.56-2.23,5.71-2.29,3.07-.08,5.13,2.87,4.46,6.26ZM154.96,79.54c-.91-.06-1.84-.03-2.73-.19-1.49-.27-2.07-1.19-1.83-2.69.52-3.32,5.41-6.39,8.59-5.27.62.22,1.34,1.04,1.46,1.68.81,4.49-1,6.55-5.49,6.47ZM99.05,103.31c2.49,3.22,2.93,11,2.77,11.08-.89-.99-1.79-1.98-2.67-2.98-1.63-1.83-3.49-3.28-5.9-4.03-2.23-.7-2.59-2.05-1.24-3.91,2.65-3.67,4.28-3.72,7.04-.15ZM96.62,117.5c.38,1.44-.06,2.34-1.48,2.71-2.31.6-4.63.86-7.01.3-2.42-.57-3.67-2.08-3.46-4.31.23-2.37,2.06-3.95,4.51-3.9,3.46.07,6.67,2.31,7.44,5.2ZM86.64,127.33c.07.44.15.83.18,1.23.23,3.48,2,6.23,4.33,8.61,5.53,5.66,6.38,16.16,4.99,23.1-1.74-1.8-3.38-3.13-4.58-4.79-4.15-5.76-7.01-12.21-9.34-18.87-1.22-3.49.88-7.61,4.42-9.3ZM84.78,146.15c.21.48.21,1.04.33,1.67-.12.61-.08,1.42-.46,1.92-.36.48-1.29,1.04-1.74.89-5.28-1.79-8.68-8.36-4.94-13.52,1.28-1.76,2.21-1.62,2.94.2,1.2,2.98,2.59,5.88,3.86,8.84ZM77.6,156.47c.17-.59.89-1.22,1.51-1.45,2.67-1.02,6.15.61,7.93,3.51-1.57.72-3.07,1.36-4.53,2.07-1.23.6-2.42.93-3.61-.07-1.28-1.08-1.75-2.5-1.3-4.06ZM82.34,167.09c1.78-1.17,3.93-2.08,6.02-2.44,5.45-.95,10.82-.45,15.88,2.07.53.26,1.03.58,1.53.89.12.07.18.24.33.46-1.53,1.68-3.51,2.03-5.57,1.87-5.69-.44-10.72,1.09-15.15,4.69-1.81,1.47-3,1.25-4.22-.71-1.56-2.51-1.3-5.19,1.18-6.82ZM88.65,176.23c5.41-2.81,11.21-3.67,16.36-3.45,6.38.05,11.84.44,17.18,1.94,11.63,3.28,18.31,11.78,18.58,23.84.07,2.95-.03,5.94-.39,8.86-1.03,8.48-6.48,11.75-14.6,11.3-5.59-.31-10.53-2.49-15.12-5.57-10.49-7.04-18.18-16.55-24.31-27.45-.13-.23-.26-.47-.39-.71-2.45-4.45-1.86-6.4,2.71-8.77ZM140.26,169.41c-.27.25-1.27.01-1.73-.31-6.95-4.93-13.35-10.4-17.55-18.01-2.4-4.35-3.8-9.01-4.07-13.98-.03-.61.08-1.3.33-1.85.35-.75,1.06-1.02,1.71-.36.94.95,1.97,1.89,2.61,3.03,3.5,6.28,7.88,11.76,13.56,16.26,4.07,3.22,5.63,7.88,6.33,13.32-.27.47-.59,1.35-1.21,1.9ZM137.52,143.69c-.95-2.97-2.11-5.87-3.09-8.83-.8-2.4-.47-3.88.85-4.66,1.48-.87,3.49-.39,5.04,1.35.63.7,1.15,1.57,1.48,2.45,1.91,5.13,3.68,10.31,5.62,15.43,1.59,4.2,2.89,8.44,2.72,12.99,0,2.2.05,4.41-.01,6.61-.05,1.88-.97,2.85-2.68,3.05-1.93.23-3.14-.52-3.7-2.31-.09-.31-.21-.62-.22-.94-.21-8.81-3.37-16.92-6.01-25.14ZM148.29,133.3c1.09-4.2,2.6-8.3,3.96-12.43.2-.6.54-1.18.93-1.69.99-1.27,2.28-1.47,3.28-.24.91,1.13,1.73,2.54,2.01,3.94.64,3.26.93,6.58,1.32,9.54-.33,2.96-.6,5.52-.9,8.08-.3,2.52-1.77,4.35-3.7,5.84-1.52,1.18-2.8,1.09-3.91-.43-2.74-3.77-4.17-7.98-2.97-12.61ZM157.67,152.56c3.02-6.08,7.5-11.16,11.72-16.39.45-.56,1.65-.93,2.35-.75.48.12.94,1.31.99,2.05.45,7.91-2.29,14.77-7.09,20.93-1.76,2.25-3.53,4.49-5.2,6.8-2.14,2.96-3.67,6.2-4.19,9.86-.03.24-.17.46-.38,1.01-1.52-2.1-2.23-4.19-2.35-6.45-.33-6.09,1.5-11.7,4.15-17.06ZM160.84,173.05c3.49-9.45,9.99-15.89,19.76-18.79.84-.25,1.75-.26,2.63-.38.09.15-5.83,9.17-7.31,14.38-.77,2.7-2.4,4.99-4.65,6.64-2.6,1.9-5.35,3.59-8.11,5.24-1.58.94-2.72.41-2.82-1.4-.1-1.89-.13-3.96.51-5.69ZM161.13,195.95c.73-10.58,6.61-17.22,16.5-20.43,7.65-2.48,15.53-4.12,23.56-4.53,5.31-.27,10.65.32,15.81,1.82.92.27,1.83.68,2.62,1.2,1.34.88,1.89,2.19,1.41,3.78-.25.82-.55,1.64-.93,2.4-7.72,15.49-19.1,27.51-34.24,35.93-2.8,1.56-5.69,2.84-9,2.82-4.52-.12-8.06-2.19-10.75-5.68-3.93-5.09-5.42-11-4.98-17.31ZM221.11,168.94c-2.64.65-12.68.76-14.95.38-.51-.09-1.23-.51-1.35-.93-.11-.38.36-1.06.74-1.43,4.34-4.13,9.62-4.75,15.23-3.92,1.49.22,2.66.99,2.74,2.68.09,1.71-.94,2.85-2.42,3.22ZM222.29,161.99c-.67-.15-1.99-.38-3.28-.75-1.35-.39-2.01-1.38-1.95-2.8.06-1.41,1.09-2.79,2.48-2.72,1.83.1,3.72.47,5.42,1.14,1.32.51,1.6,1.95,1.2,3.33-.47,1.64-1.8,1.8-3.88,1.8ZM226.06,148.18c-1.97,2.35-4.66,2.91-7.38,3.06-2.05.01-3.17-.73-3.41-2.18-.28-1.66.42-2.64,2.37-3.24,2.62-.8,5.25-1.12,7.88-.03,1.64.67,1.71,1,.54,2.39ZM224.2,143.17c-1.23.01-2.05-.87-2.02-2.19.04-2.22,1.99-4.51,3.85-4.45,1.39.04,1.77.98,1.77,2.18-.03,2.3-1.75,4.44-3.6,4.46Z"/>
        </g>
      </g>
    </g>
  </g>
  <path class="st1" d="M260.14,262.21c1.93,0,1.93-3,0-3s-1.93,3,0,3h0Z"/>
</svg>