<?xml version="1.0" encoding="UTF-8"?>
<svg id="Layer_1" xmlns="http://www.w3.org/2000/svg" version="1.1" viewBox="0 0 943.73 203.29">
  <!-- Generator: Adobe Illustrator 29.5.1, SVG Export Plug-In . SVG Version: 2.1.0 Build 141)  -->
  <defs>
    <style>
      .st0 {
        fill: #fff;
      }

      .st1 {
        fill: #e3ff65;
      }
    </style>
  </defs>
  <path class="st1" d="M147.42,105.85c0,27.29-21.41,48.83-50.65,48.83s-50.79-21.55-50.79-48.83,21.41-48.83,50.79-48.83,50.65,21.55,50.65,48.83ZM121.12,105.85c0-29.8-9.38-46.04-24.35-46.04s-24.35,16.23-24.35,46.04,9.23,46.03,24.35,46.03,24.35-16.23,24.35-46.03Z"/>
  <path class="st1" d="M244.8,149.92v2.8h-41.56v-2.8l8.12-7.42v-35.68c0-9.38-3.5-14.13-10.35-14.13-8.54,0-13.15,8.54-13.15,17.91v31.9l7.98,7.42v2.8h-41.56v-2.8l10.21-7.42v-49.95l-10.21-7.42v-2.8h33.58v19.31c3.08-12.31,9.93-21.13,24.35-21.13,13.43,0,22.39,7.98,22.39,25.75v36.24l10.21,7.42Z"/>
  <path class="st1" d="M322.46,128.51l2.1.84c-5.6,16.23-17.77,25.33-34.42,25.33-22.11,0-39.88-15.25-39.88-37.22s17.63-36.94,39.46-36.94,35.82,13.99,35.82,36.94h-50.09c.84,12.73,10.07,24.77,24.91,24.77,8.96,0,16.37-3.78,22.11-13.71ZM275.3,114.66h27.84c-.28-24.07-4.2-31.9-13.43-31.9s-14.27,10.21-14.41,31.9Z"/>
  <path class="st0" d="M424.04,128.37c0,14.41-13.01,24.35-35.82,24.35h-55.83v-2.8l10.07-7.42v-73.46l-10.07-7.28v-2.8h52.47c20.29,0,33.86,8.54,33.86,22.95s-12.59,21.55-26.73,22.67v.42c20.57.98,32.04,9.79,32.04,23.37ZM366.53,61.77v41.98h8.96c11.33,0,19.73-9.38,19.73-21.83s-8.12-20.15-18.47-20.15h-10.21ZM398.57,127.39c0-12.87-7.7-20.85-21.41-20.85h-10.63v43.38h11.47c11.47,0,20.57-8.81,20.57-22.53Z"/>
  <path class="st0" d="M473.01,149.92v2.8h-43.66v-2.8l10.21-7.42v-49.95l-10.21-7.42v-2.8h33.58v60.17l10.07,7.42ZM438.73,62.47c0-6.44,5.18-12.17,12.45-12.17s12.45,5.74,12.45,12.17c0,6.86-5.18,12.03-12.45,12.03s-12.45-5.18-12.45-12.03Z"/>
  <path class="st0" d="M558.92,117.46c0,21.97-18.05,37.22-40.16,37.22s-40.16-15.25-40.16-37.22,18.19-36.94,40.16-36.94,40.16,14.97,40.16,36.94ZM534.01,117.46c0-25.89-5.18-34.14-15.25-34.14s-15.11,8.26-15.11,34.14,5.18,34.42,15.11,34.42,15.25-8.81,15.25-34.42Z"/>
  <path class="st0" d="M649.86,92.55h-2.8l-18.05-30.78h-11.47v80.74l11.61,7.42v2.8h-47.15v-2.8l11.61-7.42V61.77h-11.61l-17.91,30.78h-2.94v-33.58h88.71v33.58Z"/>
  <path class="st0" d="M724.16,128.51l2.1.84c-5.6,16.23-17.77,25.33-34.42,25.33-22.11,0-39.88-15.25-39.88-37.22s17.63-36.94,39.46-36.94,35.82,13.99,35.82,36.94h-50.09c.84,12.73,10.07,24.77,24.91,24.77,8.96,0,16.37-3.78,22.11-13.71ZM677.01,114.66h27.84c-.28-24.07-4.2-31.9-13.43-31.9s-14.27,10.21-14.41,31.9Z"/>
  <path class="st0" d="M807.97,130.33c-5.6,15.81-18.75,24.35-34.7,24.35-21.83,0-37.64-14.97-37.64-37.36s17.77-36.8,39.88-36.8c6.44,0,13.01.98,19.73,3.5l8.26-2.38h2.66v32.88h-2.52l-17.63-28.12c-2.66-2.38-5.32-3.08-8.68-3.08-12.73,0-16.79,12.87-16.79,26.73,0,21.13,8.82,32.18,24.49,32.18,8.39,0,15.39-3.36,20.71-12.87l2.24.98Z"/>
  <path class="st0" d="M902.83,149.92v2.8h-41.56v-2.8l8.12-7.42v-35.68c0-9.38-3.5-14.13-10.35-14.13-8.54,0-13.15,8.54-13.15,17.91v31.9l7.98,7.42v2.8h-41.56v-2.8l10.21-7.42v-73.46l-10.21-7.28v-2.8h33.58v42.68c3.08-12.31,9.93-21.13,24.35-21.13,13.43,0,22.39,7.98,22.39,25.75v36.24l10.21,7.42Z"/>
</svg>