<svg xmlns="http://www.w3.org/2000/svg" width="572" height="61.198" viewBox="0 0 572 61.198">
  <g id="Group_5569" data-name="Group 5569" transform="translate(-4703.957 -1064)">
    <g id="Group_5559" data-name="Group 5559" transform="translate(4775.521 1078.786)">
      <path id="Path_319" data-name="Path 319" d="M123.5,70.191l8.884,22h-6.148l-1.213-3.214h-8.658l-1.212,3.214H109l8.912-22Zm-2.792,7.22-2.425,6.459H123.1Z" transform="translate(-109.004 -69.768)" fill="#fff"/>
      <path id="Path_320" data-name="Path 320" d="M139.806,70.191h9.7c5.838,0,8.629,4.006,8.629,8.432,0,4.653-2.791,8.575-8.629,8.575h-4.062v4.991h-5.64Zm5.64,5.133v6.741H149.2c2.369,0,3.243-1.466,3.243-3.412a3.008,3.008,0,0,0-3.243-3.328Z" transform="translate(-108.243 -69.768)" fill="#fff"/>
      <path id="Path_321" data-name="Path 321" d="M176.805,69.778A11.425,11.425,0,1,1,165.13,81.2,11.577,11.577,0,0,1,176.805,69.778Zm0,17.4a5.979,5.979,0,1,0-5.978-5.979A5.912,5.912,0,0,0,176.805,87.18Z" transform="translate(-107.617 -69.778)" fill="#fff"/>
      <path id="Path_322" data-name="Path 322" d="M196.538,70.191h5.612V86.746H212.7v5.443h-16.16Z" transform="translate(-106.842 -69.768)" fill="#fff"/>
      <path id="Path_323" data-name="Path 323" d="M220.651,70.191h5.612V86.746h10.547v5.443h-16.16Z" transform="translate(-106.246 -69.768)" fill="#fff"/>
      <path id="Path_324" data-name="Path 324" d="M254.9,69.778A11.425,11.425,0,1,1,243.222,81.2,11.575,11.575,0,0,1,254.9,69.778Zm0,17.4A5.979,5.979,0,1,0,248.92,81.2,5.912,5.912,0,0,0,254.9,87.18Z" transform="translate(-105.688 -69.778)" fill="#fff"/>
      <path id="Path_325" data-name="Path 325" d="M286.493,70.191H305.84v5.472h-6.853V92.189h-5.641V75.663h-6.853Z" transform="translate(-104.619 -69.768)" fill="#fff"/>
      <path id="Path_326" data-name="Path 326" d="M313.69,70.191h16.892v5.472H319.33v3.158h9.25v5.105h-9.25v2.82h11.252v5.443H313.69Z" transform="translate(-103.947 -69.768)" fill="#fff"/>
      <path id="Path_327" data-name="Path 327" d="M359.887,86.305a11.425,11.425,0,1,1-.029-10.265l-5.132,2.313a5.979,5.979,0,1,0,0,5.7Z" transform="translate(-103.353 -69.778)" fill="#fff"/>
      <path id="Path_328" data-name="Path 328" d="M387.837,70.191v22H382.2V84.01h-8.967v8.179h-5.612v-22h5.612v8.546H382.2V70.191Z" transform="translate(-102.615 -69.768)" fill="#fff"/>
      <path id="Path_329" data-name="Path 329" d="M396.987,92.189v-22h4.794l9.815,12.3v-12.3h5.612v22h-4.766l-9.816-12.268V92.189Z" transform="translate(-101.89 -69.768)" fill="#fff"/>
      <path id="Path_330" data-name="Path 330" d="M437.015,69.778A11.425,11.425,0,1,1,425.337,81.2,11.576,11.576,0,0,1,437.015,69.778Zm0,17.4a5.979,5.979,0,1,0-5.979-5.979A5.912,5.912,0,0,0,437.015,87.18Z" transform="translate(-101.189 -69.778)" fill="#fff"/>
      <path id="Path_331" data-name="Path 331" d="M456.746,70.191h5.612V86.746h10.547v5.443h-16.16Z" transform="translate(-100.413 -69.768)" fill="#fff"/>
      <path id="Path_332" data-name="Path 332" d="M490.994,69.778A11.425,11.425,0,1,1,479.317,81.2,11.575,11.575,0,0,1,490.994,69.778Zm0,17.4a5.979,5.979,0,1,0-5.979-5.979A5.912,5.912,0,0,0,490.994,87.18Z" transform="translate(-99.856 -69.778)" fill="#fff"/>
      <path id="Path_333" data-name="Path 333" d="M520.763,79.367h10.6V92.2h-4.428V90.14c-1.072,1.636-3.3,2.483-5.555,2.483a11.425,11.425,0,1,1,0-22.845,11.764,11.764,0,0,1,9.305,4.6l-4.6,3.1a5.989,5.989,0,1,0-4.71,9.7,5.665,5.665,0,0,0,4.71-2.509v-.621h-5.331Z" transform="translate(-99.105 -69.778)" fill="#fff"/>
      <path id="Path_334" data-name="Path 334" d="M545.6,70.191v22h-5.64v-22Z" transform="translate(-98.358 -69.768)" fill="#fff"/>
      <path id="Path_335" data-name="Path 335" d="M555.1,70.191h16.893v5.472H560.738v3.158h9.25v5.105h-9.25v2.82h11.253v5.443H555.1Z" transform="translate(-97.984 -69.768)" fill="#fff"/>
      <path id="Path_336" data-name="Path 336" d="M585.234,85.6v.14c0,.846,1.157,2,3.722,2,2.116,0,2.792-.7,2.792-1.355,0-.93-1.1-1.5-3.75-2.4-3.5-1.155-8.094-2.848-8.094-7.389,0-4.2,3.582-6.825,8.6-6.825,5.133,0,9,2.736,9,7.107V77.2H592V77c0-1.072-1.1-2.34-3.386-2.34-1.917,0-2.679.761-2.679,1.5,0,.874,1.015,1.326,3.638,2.228,3.045,1.072,8.235,2.877,8.235,7.7,0,4.286-3.722,6.543-8.742,6.543-5.274,0-9.336-2.454-9.336-6.769V85.6Z" transform="translate(-97.375 -69.778)" fill="#fff"/>
    </g>
    <g id="Group_5560" data-name="Group 5560" transform="translate(4703.957 1064)">
      <path id="Path_338" data-name="Path 338" d="M74.973,67.669,67.861,55.348,60.747,67.669a19.083,19.083,0,0,1,14.226,0Z" transform="translate(-38.633 -55.348)" fill="#fff"/>
      <path id="Path_339" data-name="Path 339" d="M81.027,77.456a15.068,15.068,0,0,0-26.017,0l5.617,3.237-.141.245a7.989,7.989,0,1,1-.041.072L54.381,91.528a15.071,15.071,0,0,0,27.277-.009l-6.24-10.83Z" transform="translate(-38.79 -54.986)" fill="#fff"/>
      <path id="Path_340" data-name="Path 340" d="M67.757,87.456a2.67,2.67,0,1,0-2.67-2.67A2.671,2.671,0,0,0,67.757,87.456Z" transform="translate(-38.525 -54.687)" fill="#fff"/>
      <path id="Path_341" data-name="Path 341" d="M60.747,103.047l7.113,12.321,7.112-12.321a19.07,19.07,0,0,1-14.226,0Z" transform="translate(-38.633 -54.17)" fill="#fff"/>
      <path id="Path_342" data-name="Path 342" d="M80.534,77.268l-.014.008L74.91,80.509l6.241,10.83,8.1,14.064h7.492Z" transform="translate(-38.283 -54.806)" fill="#fff"/>
      <path id="Path_343" data-name="Path 343" d="M60.862,80.755,61,80.509l-5.617-3.237-.007,0-.178.31-.1.176L39.166,105.4h7.492l8.1-14.055,6.064-10.522Z" transform="translate(-39.166 -54.806)" fill="#fff"/>
    </g>
  </g>
</svg>
