<svg xmlns="http://www.w3.org/2000/svg" width="466.086" height="49.867" viewBox="0 0 466.086 49.867">
  <g id="Group_5561" data-name="Group 5561" transform="translate(-39.166 -55.348)">
    <g id="Group_5559" data-name="Group 5559" transform="translate(97.478 67.397)">
      <path id="Path_319" data-name="Path 319" d="M120.815,70.191l7.239,17.925h-5.01l-.989-2.619H115l-.988,2.619H109l7.262-17.925Zm-2.275,5.883-1.976,5.263h3.93Z" transform="translate(-109.004 -69.846)" fill="#402984"/>
      <path id="Path_320" data-name="Path 320" d="M139.806,70.191h7.905c4.757,0,7.031,3.264,7.031,6.871,0,3.792-2.274,6.987-7.031,6.987H144.4v4.067h-4.6Zm4.6,4.182v5.492h3.057c1.93,0,2.643-1.195,2.643-2.78a2.451,2.451,0,0,0-2.643-2.712Z" transform="translate(-114.087 -69.846)" fill="#402984"/>
      <path id="Path_321" data-name="Path 321" d="M174.644,69.778a9.31,9.31,0,1,1-9.514,9.307A9.433,9.433,0,0,1,174.644,69.778Zm0,14.179a4.872,4.872,0,1,0-4.871-4.872A4.817,4.817,0,0,0,174.644,83.957Z" transform="translate(-118.267 -69.778)" fill="#402984"/>
      <path id="Path_322" data-name="Path 322" d="M196.538,70.191h4.573v13.49h8.594v4.435H196.538Z" transform="translate(-123.45 -69.846)" fill="#402984"/>
      <path id="Path_323" data-name="Path 323" d="M220.651,70.191h4.573v13.49h8.594v4.435H220.651Z" transform="translate(-127.43 -69.846)" fill="#402984"/>
      <path id="Path_324" data-name="Path 324" d="M252.736,69.778a9.31,9.31,0,1,1-9.514,9.307A9.432,9.432,0,0,1,252.736,69.778Zm0,14.179a4.872,4.872,0,1,0-4.871-4.872A4.817,4.817,0,0,0,252.736,83.957Z" transform="translate(-131.155 -69.778)" fill="#402984"/>
      <path id="Path_325" data-name="Path 325" d="M286.493,70.191h15.765V74.65h-5.584V88.116h-4.6V74.65h-5.584Z" transform="translate(-138.296 -69.846)" fill="#402984"/>
      <path id="Path_326" data-name="Path 326" d="M313.69,70.191h13.764V74.65h-9.169v2.573h7.537v4.16h-7.537v2.3h9.169v4.435H313.69Z" transform="translate(-142.784 -69.846)" fill="#402984"/>
      <path id="Path_327" data-name="Path 327" d="M355.793,83.245a9.31,9.31,0,1,1-.023-8.365l-4.181,1.885a4.872,4.872,0,1,0,0,4.642Z" transform="translate(-146.759 -69.778)" fill="#402984"/>
      <path id="Path_328" data-name="Path 328" d="M384.092,70.191V88.116h-4.6V81.451h-7.307v6.665h-4.573V70.191h4.573v6.964H379.5V70.191Z" transform="translate(-151.684 -69.846)" fill="#402984"/>
      <path id="Path_329" data-name="Path 329" d="M396.987,88.116V70.191h3.906l8,10.02V70.191h4.573V88.116H409.58l-8-10v10Z" transform="translate(-156.531 -69.846)" fill="#402984"/>
      <path id="Path_330" data-name="Path 330" d="M434.852,69.778a9.31,9.31,0,1,1-9.515,9.307A9.433,9.433,0,0,1,434.852,69.778Zm0,14.179a4.872,4.872,0,1,0-4.872-4.872A4.818,4.818,0,0,0,434.852,83.957Z" transform="translate(-161.21 -69.778)" fill="#402984"/>
      <path id="Path_331" data-name="Path 331" d="M456.746,70.191h4.573v13.49h8.594v4.435H456.746Z" transform="translate(-166.393 -69.846)" fill="#402984"/>
      <path id="Path_332" data-name="Path 332" d="M488.831,69.778a9.31,9.31,0,1,1-9.514,9.307A9.432,9.432,0,0,1,488.831,69.778Zm0,14.179a4.872,4.872,0,1,0-4.872-4.872A4.817,4.817,0,0,0,488.831,83.957Z" transform="translate(-170.118 -69.778)" fill="#402984"/>
      <path id="Path_333" data-name="Path 333" d="M518.715,77.592h8.64V88.048h-3.608V86.37a5.377,5.377,0,0,1-4.526,2.023,9.31,9.31,0,1,1,0-18.615,9.586,9.586,0,0,1,7.582,3.746l-3.745,2.528a4.88,4.88,0,1,0-3.838,7.9,4.617,4.617,0,0,0,3.838-2.045v-.506h-4.344Z" transform="translate(-175.133 -69.778)" fill="#402984"/>
      <path id="Path_334" data-name="Path 334" d="M544.554,70.191V88.116h-4.6V70.191Z" transform="translate(-180.126 -69.846)" fill="#402984"/>
      <path id="Path_335" data-name="Path 335" d="M555.1,70.191h13.765V74.65h-9.17v2.573h7.537v4.16h-7.537v2.3h9.17v4.435H555.1Z" transform="translate(-182.625 -69.846)" fill="#402984"/>
      <path id="Path_336" data-name="Path 336" d="M584.215,82.671v.114c0,.69.943,1.632,3.033,1.632,1.724,0,2.275-.574,2.275-1.1,0-.758-.9-1.218-3.056-1.954-2.85-.941-6.6-2.32-6.6-6.021,0-3.423,2.919-5.561,7.009-5.561,4.182,0,7.331,2.229,7.331,5.791v.253h-4.48v-.161c0-.873-.9-1.907-2.759-1.907-1.562,0-2.183.62-2.183,1.218,0,.712.827,1.08,2.964,1.815,2.482.873,6.71,2.345,6.71,6.274,0,3.493-3.033,5.331-7.123,5.331-4.3,0-7.607-2-7.607-5.516v-.206Z" transform="translate(-186.69 -69.778)" fill="#402984"/>
    </g>
    <g id="Group_5560" data-name="Group 5560" transform="translate(39.166 55.348)">
      <path id="Path_337" data-name="Path 337" d="M59.293,83.335a7.019,7.019,0,1,0,.873-3.382l-.033.058A6.969,6.969,0,0,0,59.293,83.335Zm7.014-2.176a2.176,2.176,0,1,1-2.176,2.176A2.176,2.176,0,0,1,66.307,81.159Z" transform="translate(-42.487 -58.81)" fill="none"/>
      <path id="Path_338" data-name="Path 338" d="M72.339,65.388l-5.8-10.04-5.8,10.04a15.55,15.55,0,0,1,11.592,0Z" transform="translate(-42.727 -55.348)" fill="#73398d"/>
      <path id="Path_339" data-name="Path 339" d="M76.093,76.074a12.278,12.278,0,0,0-21.2,0l4.577,2.638-.115.2a6.51,6.51,0,1,1-.033.058L54.381,87.54a12.281,12.281,0,0,0,22.226-.008l-5.085-8.825Z" transform="translate(-41.677 -57.764)" fill="#73398d"/>
      <path id="Path_340" data-name="Path 340" d="M67.263,86.467a2.176,2.176,0,1,0-2.176-2.176A2.176,2.176,0,0,0,67.263,86.467Z" transform="translate(-43.444 -59.765)" fill="#73398d"/>
      <path id="Path_341" data-name="Path 341" d="M60.747,103.047l5.8,10.04,5.8-10.04a15.539,15.539,0,0,1-11.592,0Z" transform="translate(-42.727 -63.22)" fill="#402984"/>
      <path id="Path_342" data-name="Path 342" d="M79.493,77.268l-.011.007L74.91,79.909l5.085,8.825,6.6,11.46h6.1Z" transform="translate(-45.065 -58.966)" fill="#73398d"/>
      <path id="Path_343" data-name="Path 343" d="M56.845,80.109l.115-.2-4.577-2.638-.006,0-.145.253-.083.143-12.983,22.53h6.105l6.6-11.453,4.941-8.574Z" transform="translate(-39.166 -58.966)" fill="#73398d"/>
    </g>
  </g>
</svg>
